Thx Hive

CM8 Doing It Right The First Time

Why download a touched up rip of a rip BRrip
Get the real deal BDRip
Enjoy

Sources:
Video: French Bluray
Le Voyage extraordinaire de Samy 3D - Combo Blu-ray + DVD - Blu-ray 3D active [Blu-ray]
Audio: A.Turtles.Tale.Sammys.Adventure.2010.LiMITED.DVDSCR.XViD-HLS (stereo)
and
the French DTS Audiotrack

Video: 720x400 @bitrate 2500 2pass
Audio: English 5.1 @448
Sample: yes included

Encode:
after my awesome mic and line dubbed version now the extended bluray version
with 15 min more footage. the dvd already had a very good quality but the bluray is awesome.

work done:
synced dvdscr audio to the french bluray, and removed french voices of french dts track
of the sourround channels and embedded the english audio in it. Videobitrate again high for the underwater-scenes
enjoy

 
http://www.imdb.com/title/tt1230204/


General
Complete name : A.Turtles.Tale.Sammys.Adventure.2010.UNCUT.BDRip.XVID.AC3.HQ.Hive-CM8.avi
Format : AVI
Format/Info : Audio Video Interleave
File size : 1.77 GiB
Duration : 1h 25mn
Overall bit rate : 2 957 Kbps
Writing application : Nandub v1.0rc2
Writing library : Nandub build 1853/release

Video
ID : 0
Format : MPEG-4 Visual
Format profile : Advanced Simple@L5
Format settings, BVOP : Yes
Format settings, QPel : Yes
Format settings, GMC : No warppoints
Format settings, Matrix : Default (H.263)
Muxing mode : Packed bitstream
Codec ID : XVID
Codec ID/Hint : XviD
Duration : 1h 25mn
Bit rate : 2 500 Kbps
Width : 720 pixels
Height : 400 pixels
Display aspect ratio : 16:9
Frame rate : 23.976 fps
Color space : YUV
Chroma subsampling : 4:2:0
Bit depth : 8 bits
Scan type : Progressive
Bits/(Pixel*Frame) : 0.362
Stream size : 1.49 GiB (85%)
Writing library : XviD 1.2.1 (UTC 2008-12-04)

Audio
ID : 1
Format : AC-3
Format/Info : Audio Coding 3
Mode extension : CM (complete main)
Codec ID : 2000
Duration : 1h 25mn
Bit rate mode : Constant
Bit rate : 448 Kbps
Channel(s) : 6 channels
Channel positions : Front: L C R, Side: L R, LFE
Sampling rate : 48.0 KHz
Bit depth : 16 bits
Stream size : 274 MiB (15%)
Alignment : Split accross interleaves
Interleave, duration : 42 ms (1.00 video frame)
Interleave, preload duration : 500 ms





Melanie Griffith ... Snow (voice)
Isabelle Fuhrman ... Hatchling Shelly (voice)
Yuri Lowenthal ... Sammy




A sea turtle who was hatched in 1959 spends the next 50 years traveling
the world while it is being changed by global warming. 